# OBJ generated by ONSHAPE BY PTC INC, 1.200 Units = meters
mtllib clay_holder3.mtl
g Part 1
v 0.25394 0 0.00550277 
v 0.253464 0 0.016498 
v 0.252511 0 0.0274622 
v 0.251084 0 0.0383749 
v 0.249186 0 0.0492156 
v 0.24682 0 0.0599638 
v 0.243991 0 0.0705995 
v 0.240704 0 0.0811026 
v 0.236965 0 0.0914535 
v 0.232781 0 0.101633 
v 0.228159 0 0.111621 
v 0.22311 0 0.1214 
v 0.217642 0 0.130951 
v 0.211765 0 0.140256 
v 0.20549 0 0.149297 
v 0.19883 0 0.158059 
v 0.191796 0 0.166524 
v 0.184403 0 0.174676 
v 0.176663 0 0.1825 
v 0.168592 0 0.189981 
v 0.160204 0 0.197106 
v 0.151515 0 0.203861 
v 0.142542 0 0.210233 
v 0.133301 0 0.21621 
v 0.12381 0 0.221782 
v 0.114086 0 0.226937 
v 0.104148 0 0.231666 
v 0.0940151 0 0.23596 
v 0.0837053 0 0.239811 
v 0.0732384 0 0.243212 
v 0.0626341 0 0.246156 
v 0.0519121 0 0.248639 
v 0.0410926 0 0.250654 
v 0.030196 0 0.252199 
v 0.0192428 0 0.25327 
v 0.00825335 0 0.253866 
v -0.00275155 0 0.253985 
v -0.0137513 0 0.253627 
v -0.0247252 0 0.252794 
v -0.0356527 0 0.251485 
v -0.0465133 0 0.249705 
v -0.0572865 0 0.247456 
v -0.0679522 0 0.244742 
v -0.0784903 0 0.241568 
v -0.0888811 0 0.237941 
v -0.099105 0 0.233868 
v -0.109143 0 0.229355 
v -0.118976 0 0.224412 
v -0.128585 0 0.219048 
v -0.137953 0 0.213272 
v -0.147063 0 0.207096 
v -0.155896 0 0.200531 
v -0.164436 0 0.193589 
v -0.172668 0 0.186284 
v -0.180575 0 0.17863 
v -0.188144 0 0.17064 
v -0.195359 0 0.162329 
v -0.202208 0 0.153714 
v -0.208677 0 0.144811 
v -0.214754 0 0.135635 
v -0.220428 0 0.126205 
v -0.225688 0 0.116538 
v -0.230524 0 0.106652 
v -0.234928 0 0.0965657 
v -0.23889 0 0.0862983 
v -0.242404 0 0.0758688 
v -0.245463 0 0.065297 
v -0.248062 0 0.0546025 
v -0.250194 0 0.0438055 
v -0.251857 0 0.0329263 
v -0.253047 0 0.0219853 
v -0.253762 0 0.011003 
v -0.254 0 0 
v -0.253762 0 -0.011003 
v -0.253047 0 -0.0219853 
v -0.251857 0 -0.0329263 
v -0.250194 0 -0.0438055 
v -0.248062 0 -0.0546025 
v -0.245463 0 -0.065297 
v -0.242404 0 -0.0758688 
v -0.23889 0 -0.0862983 
v -0.234928 0 -0.0965657 
v -0.230524 0 -0.106652 
v -0.225688 0 -0.116538 
v -0.220428 0 -0.126205 
v -0.214754 0 -0.135635 
v -0.208677 0 -0.144811 
v -0.202208 0 -0.153714 
v -0.195359 0 -0.162329 
v -0.188144 0 -0.17064 
v -0.180575 0 -0.17863 
v -0.172668 0 -0.186284 
v -0.164436 0 -0.193589 
v -0.155896 0 -0.200531 
v -0.147063 0 -0.207096 
v -0.137953 0 -0.213272 
v -0.128585 0 -0.219048 
v -0.118976 0 -0.224412 
v -0.109143 0 -0.229355 
v -0.099105 0 -0.233868 
v -0.0888811 0 -0.237941 
v -0.0784903 0 -0.241568 
v -0.0679522 0 -0.244742 
v -0.0572865 0 -0.247456 
v -0.0465133 0 -0.249705 
v -0.0356527 0 -0.251485 
v -0.0247252 0 -0.252794 
v -0.0137513 0 -0.253627 
v -0.00275155 0 -0.253985 
v 0.00825335 0 -0.253866 
v 0.0192428 0 -0.25327 
v 0.030196 0 -0.252199 
v 0.0410926 0 -0.250654 
v 0.0519121 0 -0.248639 
v 0.0626341 0 -0.246156 
v 0.0732384 0 -0.243212 
v 0.0837053 0 -0.239811 
v 0.0940151 0 -0.23596 
v 0.104148 0 -0.231666 
v 0.114086 0 -0.226937 
v 0.12381 0 -0.221782 
v 0.133301 0 -0.21621 
v 0.142542 0 -0.210233 
v 0.151515 0 -0.203861 
v 0.160204 0 -0.197106 
v 0.168592 0 -0.189981 
v 0.176663 0 -0.1825 
v 0.184403 0 -0.174676 
v 0.191796 0 -0.166524 
v 0.19883 0 -0.158059 
v 0.20549 0 -0.149297 
v 0.211765 0 -0.140256 
v 0.217642 0 -0.130951 
v 0.22311 0 -0.1214 
v 0.228159 0 -0.111621 
v 0.232781 0 -0.101633 
v 0.236965 0 -0.0914535 
v 0.240704 0 -0.0811026 
v 0.243991 0 -0.0705995 
v 0.24682 0 -0.0599638 
v 0.249186 0 -0.0492156 
v 0.251084 0 -0.0383749 
v 0.252511 0 -0.0274622 
v 0.253464 0 -0.016498 
v 0.25394 0 -0.00550277 
v 0.254 0 -3.1106e-17 
v -1.5553e-17 0 0 
v -0.254 0.02413 0 
v -0.253762 0.02413 -0.011003 
v -0.253047 0.02413 -0.0219853 
v -0.251857 0.02413 -0.0329263 
v -0.250194 0.02413 -0.0438055 
v -0.248062 0.02413 -0.0546025 
v -0.245463 0.02413 -0.065297 
v -0.242404 0.02413 -0.0758688 
v -0.23889 0.02413 -0.0862983 
v -0.234928 0.02413 -0.0965657 
v -0.230524 0.02413 -0.106652 
v -0.225688 0.02413 -0.116538 
v -0.220428 0.02413 -0.126205 
v -0.214754 0.02413 -0.135635 
v -0.208677 0.02413 -0.144811 
v -0.202208 0.02413 -0.153714 
v -0.195359 0.02413 -0.162329 
v -0.188144 0.02413 -0.17064 
v -0.180575 0.02413 -0.17863 
v -0.172668 0.02413 -0.186284 
v -0.164436 0.02413 -0.193589 
v -0.155896 0.02413 -0.200531 
v -0.147063 0.02413 -0.207096 
v -0.137953 0.02413 -0.213272 
v -0.128585 0.02413 -0.219048 
v -0.118976 0.02413 -0.224412 
v -0.109143 0.02413 -0.229355 
v -0.099105 0.02413 -0.233868 
v -0.0888811 0.02413 -0.237941 
v -0.0784903 0.02413 -0.241568 
v -0.0679522 0.02413 -0.244742 
v -0.0572865 0.02413 -0.247456 
v -0.0465133 0.02413 -0.249705 
v -0.0356527 0.02413 -0.251485 
v -0.0247252 0.02413 -0.252794 
v -0.0137513 0.02413 -0.253627 
v -0.00275155 0.02413 -0.253985 
v 0.00825335 0.02413 -0.253866 
v 0.0192428 0.02413 -0.25327 
v 0.030196 0.02413 -0.252199 
v 0.0410926 0.02413 -0.250654 
v 0.0519121 0.02413 -0.248639 
v 0.0626341 0.02413 -0.246156 
v 0.0732384 0.02413 -0.243212 
v 0.0837053 0.02413 -0.239811 
v 0.0940151 0.02413 -0.23596 
v 0.104148 0.02413 -0.231666 
v 0.114086 0.02413 -0.226937 
v 0.12381 0.02413 -0.221782 
v 0.133301 0.02413 -0.21621 
v 0.142542 0.02413 -0.210233 
v 0.151515 0.02413 -0.203861 
v 0.160204 0.02413 -0.197106 
v 0.168592 0.02413 -0.189981 
v 0.176663 0.02413 -0.1825 
v 0.184403 0.02413 -0.174676 
v 0.191796 0.02413 -0.166524 
v 0.19883 0.02413 -0.158059 
v 0.20549 0.02413 -0.149297 
v 0.211765 0.02413 -0.140256 
v 0.217642 0.02413 -0.130951 
v 0.22311 0.02413 -0.1214 
v 0.228159 0.02413 -0.111621 
v 0.232781 0.02413 -0.101633 
v 0.236965 0.02413 -0.0914535 
v 0.240704 0.02413 -0.0811026 
v 0.243991 0.02413 -0.0705995 
v 0.24682 0.02413 -0.0599638 
v 0.249186 0.02413 -0.0492156 
v 0.251084 0.02413 -0.0383749 
v 0.252511 0.02413 -0.0274622 
v 0.253464 0.02413 -0.016498 
v 0.25394 0.02413 -0.00550277 
v 0.25394 0.02413 0.00550277 
v 0.254 0.02413 -9.33181e-17 
v 0.253464 0.02413 0.016498 
v 0.252511 0.02413 0.0274622 
v 0.251084 0.02413 0.0383749 
v 0.249186 0.02413 0.0492156 
v 0.24682 0.02413 0.0599638 
v 0.243991 0.02413 0.0705995 
v 0.240704 0.02413 0.0811026 
v 0.236965 0.02413 0.0914535 
v 0.232781 0.02413 0.101633 
v 0.228159 0.02413 0.111621 
v 0.22311 0.02413 0.1214 
v 0.217642 0.02413 0.130951 
v 0.211765 0.02413 0.140256 
v 0.20549 0.02413 0.149297 
v 0.19883 0.02413 0.158059 
v 0.191796 0.02413 0.166524 
v 0.184403 0.02413 0.174676 
v 0.176663 0.02413 0.1825 
v 0.168592 0.02413 0.189981 
v 0.160204 0.02413 0.197106 
v 0.151515 0.02413 0.203861 
v 0.142542 0.02413 0.210233 
v 0.133301 0.02413 0.21621 
v 0.12381 0.02413 0.221782 
v 0.114086 0.02413 0.226937 
v 0.104148 0.02413 0.231666 
v 0.0940151 0.02413 0.23596 
v 0.0837053 0.02413 0.239811 
v 0.0732384 0.02413 0.243212 
v 0.0626341 0.02413 0.246156 
v 0.0519121 0.02413 0.248639 
v 0.0410926 0.02413 0.250654 
v 0.030196 0.02413 0.252199 
v 0.0192428 0.02413 0.25327 
v 0.00825335 0.02413 0.253866 
v -0.00275155 0.02413 0.253985 
v -0.0137513 0.02413 0.253627 
v -0.0247252 0.02413 0.252794 
v -0.0356527 0.02413 0.251485 
v -0.0465133 0.02413 0.249705 
v -0.0572865 0.02413 0.247456 
v -0.0679522 0.02413 0.244742 
v -0.0784903 0.02413 0.241568 
v -0.0888811 0.02413 0.237941 
v -0.099105 0.02413 0.233868 
v -0.109143 0.02413 0.229355 
v -0.118976 0.02413 0.224412 
v -0.128585 0.02413 0.219048 
v -0.137953 0.02413 0.213272 
v -0.147063 0.02413 0.207096 
v -0.155896 0.02413 0.200531 
v -0.164436 0.02413 0.193589 
v -0.172668 0.02413 0.186284 
v -0.180575 0.02413 0.17863 
v -0.188144 0.02413 0.17064 
v -0.195359 0.02413 0.162329 
v -0.202208 0.02413 0.153714 
v -0.208677 0.02413 0.144811 
v -0.214754 0.02413 0.135635 
v -0.220428 0.02413 0.126205 
v -0.225688 0.02413 0.116538 
v -0.230524 0.02413 0.106652 
v -0.234928 0.02413 0.0965657 
v -0.23889 0.02413 0.0862983 
v -0.242404 0.02413 0.0758688 
v -0.245463 0.02413 0.065297 
v -0.248062 0.02413 0.0546025 
v -0.250194 0.02413 0.0438055 
v -0.251857 0.02413 0.0329263 
v -0.253047 0.02413 0.0219853 
v -0.253762 0.02413 0.011003 
v 0.219763 0.02413 -0.102477 
v 0.215084 0.02413 -0.111966 
v 0.209995 0.02413 -0.121241 
v 0.204507 0.02413 -0.130285 
v 0.227858 0.02413 -0.0829336 
v 0.224024 0.02413 -0.0927937 
v 0.17146 0.02413 -0.17146 
v 0.163818 0.02413 -0.178776 
v 0.0421065 0.02413 -0.238798 
v 0.0316502 0.02413 -0.240407 
v -0.121241 0.02413 -0.209995 
v -0.130285 0.02413 -0.204507 
v 0.198629 0.02413 -0.139082 
v 0.192374 0.02413 -0.147613 
v 0.178776 0.02413 -0.163818 
v 0.102477 0.02413 -0.219763 
v 0.0927937 0.02413 -0.224024 
v 0.0829336 0.02413 -0.227858 
v 0.0729156 0.02413 -0.231259 
v 0.0627589 0.02413 -0.234219 
v 0.0524826 0.02413 -0.236734 
v 0.0211337 0.02413 -0.241559 
v -0.0421065 0.02413 -0.238798 
v -0.0524826 0.02413 -0.236734 
v -0.0627589 0.02413 -0.234219 
v -0.0729156 0.02413 -0.231259 
v -0.0829336 0.02413 -0.227858 
v -0.0927937 0.02413 -0.224024 
v -0.111966 0.02413 -0.215084 
v -0.147613 0.02413 -0.192374 
v -0.155864 0.02413 -0.185752 
v 0.236734 0.02413 0.0524826 
v 0.234219 0.02413 0.0627589 
v 0.238798 0.02413 0.0421065 
v 0.240407 0.02413 0.0316502 
v 0.241559 0.02413 0.0211337 
v 0.185752 0.02413 -0.155864 
v 0.111966 0.02413 -0.215084 
v 0.0105769 0.02413 -0.242251 
v -0.102477 0.02413 -0.219763 
v -0.139082 0.02413 -0.198629 
v -0.163818 0.02413 -0.178776 
v 0.231259 0.02413 0.0729156 
v 0.242251 0.02413 0.0105769 
v 0.242482 0.02413 4.26676e-17 
v 0.242251 0.02413 -0.0105769 
v 0.241559 0.02413 -0.0211337 
v 0.240407 0.02413 -0.0316502 
v 0.238798 0.02413 -0.0421065 
v 0.236734 0.02413 -0.0524826 
v 0.155864 0.02413 -0.185752 
v 0.147613 0.02413 -0.192374 
v 0.121241 0.02413 -0.209995 
v 0.219763 0.02413 0.102477 
v 0.215084 0.02413 0.111966 
v 0.224024 0.02413 0.0927937 
v 0.227858 0.02413 0.0829336 
v 0.234219 0.02413 -0.0627589 
v 0.231259 0.02413 -0.0729156 
v 0.139082 0.02413 -0.198629 
v 0.130285 0.02413 -0.204507 
v 1.48477e-17 0.02413 -0.242482 
v -0.0105769 0.02413 -0.242251 
v -0.17146 0.02413 -0.17146 
v -0.178776 0.02413 -0.163818 
v -0.0211337 0.02413 -0.241559 
v -0.0316502 0.02413 -0.240407 
v -0.185752 0.02413 -0.155864 
v -0.192374 0.02413 -0.147613 
v -0.234219 0.02413 -0.0627589 
v -0.236734 0.02413 -0.0524826 
v -0.240407 0.02413 -0.0316502 
v -0.241559 0.02413 -0.0211337 
v -0.241559 0.02413 0.0211337 
v -0.242251 0.02413 0.0105769 
v -0.240407 0.02413 0.0316502 
v -0.238798 0.02413 0.0421065 
v -0.236734 0.02413 0.0524826 
v -0.238798 0.02413 -0.0421065 
v -0.242251 0.02413 -0.0105769 
v -0.231259 0.02413 0.0729156 
v -0.234219 0.02413 0.0627589 
v -0.227858 0.02413 0.0829336 
v -0.224024 0.02413 0.0927937 
v -0.219763 0.02413 0.102477 
v -0.139082 0.02413 0.198629 
v -0.147613 0.02413 0.192374 
v -0.130285 0.02413 0.204507 
v 0.0211337 0.02413 0.241559 
v 0.0105769 0.02413 0.242251 
v 0.0316502 0.02413 0.240407 
v 0.0421065 0.02413 0.238798 
v 0.0524826 0.02413 0.236734 
v 0.111966 0.02413 0.215084 
v 0.102477 0.02413 0.219763 
v 0.121241 0.02413 0.209995 
v -0.198629 0.02413 -0.139082 
v -0.204507 0.02413 -0.130285 
v -0.209995 0.02413 -0.121241 
v -0.215084 0.02413 -0.111966 
v -0.227858 0.02413 -0.0829336 
v -0.231259 0.02413 -0.0729156 
v -0.215084 0.02413 0.111966 
v -0.209995 0.02413 0.121241 
v -0.185752 0.02413 0.155864 
v -0.192374 0.02413 0.147613 
v -0.178776 0.02413 0.163818 
v -0.17146 0.02413 0.17146 
v -0.163818 0.02413 0.178776 
v -0.155864 0.02413 0.185752 
v 0.0729156 0.02413 0.231259 
v 0.0627589 0.02413 0.234219 
v 0.0829336 0.02413 0.227858 
v 0.0927937 0.02413 0.224024 
v 0.130285 0.02413 0.204507 
v 0.147613 0.02413 0.192374 
v 0.139082 0.02413 0.198629 
v 0.155864 0.02413 0.185752 
v 0.192374 0.02413 0.147613 
v 0.185752 0.02413 0.155864 
v 0.198629 0.02413 0.139082 
v 0.209995 0.02413 0.121241 
v 0.204507 0.02413 0.130285 
v -0.242482 0.02413 -4.64187e-17 
v -0.204507 0.02413 0.130285 
v -0.102477 0.02413 0.219763 
v -0.111966 0.02413 0.215084 
v -0.0927937 0.02413 0.224024 
v -0.0524826 0.02413 0.236734 
v -0.0627589 0.02413 0.234219 
v -0.0421065 0.02413 0.238798 
v 0.163818 0.02413 0.178776 
v 0.178776 0.02413 0.163818 
v -0.219763 0.02413 -0.102477 
v -0.224024 0.02413 -0.0927937 
v -0.198629 0.02413 0.139082 
v -0.0829336 0.02413 0.227858 
v -0.0729156 0.02413 0.231259 
v -0.0316502 0.02413 0.240407 
v -0.0211337 0.02413 0.241559 
v 0.17146 0.02413 0.17146 
v -0.121241 0.02413 0.209995 
v -0.0105769 0.02413 0.242251 
v -4.45432e-17 0.02413 0.242482 
v 0.242482 0.000508 -1.67233e-17 
v 0.242251 0.000508 0.0105769 
v 0.241559 0.000508 0.0211337 
v 0.240407 0.000508 0.0316502 
v 0.238798 0.000508 0.0421065 
v 0.236734 0.000508 0.0524826 
v 0.234219 0.000508 0.0627589 
v 0.231259 0.000508 0.0729156 
v 0.227858 0.000508 0.0829336 
v 0.224024 0.000508 0.0927937 
v 0.219763 0.000508 0.102477 
v 0.215084 0.000508 0.111966 
v 0.209995 0.000508 0.121241 
v 0.204507 0.000508 0.130285 
v 0.198629 0.000508 0.139082 
v 0.192374 0.000508 0.147613 
v 0.185752 0.000508 0.155864 
v 0.178776 0.000508 0.163818 
v 0.17146 0.000508 0.17146 
v 0.163818 0.000508 0.178776 
v 0.155864 0.000508 0.185752 
v 0.147613 0.000508 0.192374 
v 0.139082 0.000508 0.198629 
v 0.130285 0.000508 0.204507 
v 0.121241 0.000508 0.209995 
v 0.111966 0.000508 0.215084 
v 0.102477 0.000508 0.219763 
v 0.0927937 0.000508 0.224024 
v 0.0829336 0.000508 0.227858 
v 0.0729156 0.000508 0.231259 
v 0.0627589 0.000508 0.234219 
v 0.0524826 0.000508 0.236734 
v 0.0421065 0.000508 0.238798 
v 0.0316502 0.000508 0.240407 
v 0.0211337 0.000508 0.241559 
v 0.0105769 0.000508 0.242251 
v -4.45432e-17 0.000508 0.242482 
v -0.0105769 0.000508 0.242251 
v -0.0211337 0.000508 0.241559 
v -0.0316502 0.000508 0.240407 
v -0.0421065 0.000508 0.238798 
v -0.0524826 0.000508 0.236734 
v -0.0627589 0.000508 0.234219 
v -0.0729156 0.000508 0.231259 
v -0.0829336 0.000508 0.227858 
v -0.0927937 0.000508 0.224024 
v -0.102477 0.000508 0.219763 
v -0.111966 0.000508 0.215084 
v -0.121241 0.000508 0.209995 
v -0.130285 0.000508 0.204507 
v -0.139082 0.000508 0.198629 
v -0.147613 0.000508 0.192374 
v -0.155864 0.000508 0.185752 
v -0.163818 0.000508 0.178776 
v -0.17146 0.000508 0.17146 
v -0.178776 0.000508 0.163818 
v -0.185752 0.000508 0.155864 
v -0.192374 0.000508 0.147613 
v -0.198629 0.000508 0.139082 
v -0.204507 0.000508 0.130285 
v -0.209995 0.000508 0.121241 
v -0.215084 0.000508 0.111966 
v -0.219763 0.000508 0.102477 
v -0.224024 0.000508 0.0927937 
v -0.227858 0.000508 0.0829336 
v -0.231259 0.000508 0.0729156 
v -0.234219 0.000508 0.0627589 
v -0.236734 0.000508 0.0524826 
v -0.238798 0.000508 0.0421065 
v -0.240407 0.000508 0.0316502 
v -0.241559 0.000508 0.0211337 
v -0.242251 0.000508 0.0105769 
v -0.242482 0.000508 -4.64187e-17 
v -0.242251 0.000508 -0.0105769 
v -0.241559 0.000508 -0.0211337 
v -0.240407 0.000508 -0.0316502 
v -0.238798 0.000508 -0.0421065 
v -0.236734 0.000508 -0.0524826 
v -0.234219 0.000508 -0.0627589 
v -0.231259 0.000508 -0.0729156 
v -0.227858 0.000508 -0.0829336 
v -0.224024 0.000508 -0.0927937 
v -0.219763 0.000508 -0.102477 
v -0.215084 0.000508 -0.111966 
v -0.209995 0.000508 -0.121241 
v -0.204507 0.000508 -0.130285 
v -0.198629 0.000508 -0.139082 
v -0.192374 0.000508 -0.147613 
v -0.185752 0.000508 -0.155864 
v -0.178776 0.000508 -0.163818 
v -0.17146 0.000508 -0.17146 
v -0.163818 0.000508 -0.178776 
v -0.155864 0.000508 -0.185752 
v -0.147613 0.000508 -0.192374 
v -0.139082 0.000508 -0.198629 
v -0.130285 0.000508 -0.204507 
v -0.121241 0.000508 -0.209995 
v -0.111966 0.000508 -0.215084 
v -0.102477 0.000508 -0.219763 
v -0.0927937 0.000508 -0.224024 
v -0.0829336 0.000508 -0.227858 
v -0.0729156 0.000508 -0.231259 
v -0.0627589 0.000508 -0.234219 
v -0.0524826 0.000508 -0.236734 
v -0.0421065 0.000508 -0.238798 
v -0.0316502 0.000508 -0.240407 
v -0.0211337 0.000508 -0.241559 
v -0.0105769 0.000508 -0.242251 
v 1.48477e-17 0.000508 -0.242482 
v 0.0105769 0.000508 -0.242251 
v 0.0211337 0.000508 -0.241559 
v 0.0316502 0.000508 -0.240407 
v 0.0421065 0.000508 -0.238798 
v 0.0524826 0.000508 -0.236734 
v 0.0627589 0.000508 -0.234219 
v 0.0729156 0.000508 -0.231259 
v 0.0829336 0.000508 -0.227858 
v 0.0927937 0.000508 -0.224024 
v 0.102477 0.000508 -0.219763 
v 0.111966 0.000508 -0.215084 
v 0.121241 0.000508 -0.209995 
v 0.130285 0.000508 -0.204507 
v 0.139082 0.000508 -0.198629 
v 0.147613 0.000508 -0.192374 
v 0.155864 0.000508 -0.185752 
v 0.163818 0.000508 -0.178776 
v 0.17146 0.000508 -0.17146 
v 0.178776 0.000508 -0.163818 
v 0.185752 0.000508 -0.155864 
v 0.192374 0.000508 -0.147613 
v 0.198629 0.000508 -0.139082 
v 0.204507 0.000508 -0.130285 
v 0.209995 0.000508 -0.121241 
v 0.215084 0.000508 -0.111966 
v 0.219763 0.000508 -0.102477 
v 0.224024 0.000508 -0.0927937 
v 0.227858 0.000508 -0.0829336 
v 0.231259 0.000508 -0.0729156 
v 0.234219 0.000508 -0.0627589 
v 0.236734 0.000508 -0.0524826 
v 0.238798 0.000508 -0.0421065 
v 0.240407 0.000508 -0.0316502 
v 0.241559 0.000508 -0.0211337 
v 0.242251 0.000508 -0.0105769 
v 0 0.000508 -1.67233e-17 
vn 0 -1 0 
vn -1 0 0 
vn -0.999061 0 -0.0433188 
vn -0.996247 0 -0.0865562 
vn -0.991562 0 -0.129631 
vn -0.985016 0 -0.172463 
vn -0.976621 0 -0.21497 
vn -0.966392 0 -0.257075 
vn -0.954348 0 -0.298696 
vn -0.940513 0 -0.339757 
vn -0.924913 0 -0.38018 
vn -0.907575 0 -0.419889 
vn -0.888534 0 -0.45881 
vn -0.867825 0 -0.49687 
vn -0.845487 0 -0.533996 
vn -0.821561 0 -0.57012 
vn -0.796093 0 -0.605174 
vn -0.76913 0 -0.639092 
vn -0.740724 0 -0.67181 
vn -0.710926 0 -0.703266 
vn -0.679794 0 -0.733403 
vn -0.647386 0 -0.762162 
vn -0.613763 0 -0.789491 
vn -0.578987 0 -0.815337 
vn -0.543124 0 -0.839653 
vn -0.506241 0 -0.862392 
vn -0.468408 0 -0.883512 
vn -0.429696 0 -0.902974 
vn -0.390177 0 -0.92074 
vn -0.349926 0 -0.936778 
vn -0.309017 0 -0.951057 
vn -0.267528 0 -0.96355 
vn -0.225537 0 -0.974235 
vn -0.183123 0 -0.98309 
vn -0.140365 0 -0.9901 
vn -0.0973433 0 -0.995251 
vn -0.0541389 0 -0.998533 
vn -0.0108329 0 -0.999941 
vn 0.0324935 0 -0.999472 
vn 0.0757589 0 -0.997126 
vn 0.118882 0 -0.992908 
vn 0.161782 0 -0.986827 
vn 0.204378 0 -0.978892 
vn 0.246591 0 -0.96912 
vn 0.28834 0 -0.957528 
vn 0.329549 0 -0.944139 
vn 0.370138 0 -0.928977 
vn 0.410033 0 -0.912071 
vn 0.449158 0 -0.893452 
vn 0.487439 0 -0.873157 
vn 0.524806 0 -0.851222 
vn 0.561187 0 -0.827689 
vn 0.596515 0 -0.802602 
vn 0.630723 0 -0.776008 
vn 0.663746 0 -0.747958 
vn 0.695524 0 -0.718503 
vn 0.725995 0 -0.687699 
vn 0.755104 0 -0.655605 
vn 0.782795 0 -0.622279 
vn 0.809017 0 -0.587785 
vn 0.83372 0 -0.552188 
vn 0.856857 0 -0.515554 
vn 0.878386 0 -0.477952 
vn 0.898266 0 -0.439453 
vn 0.916459 0 -0.400128 
vn 0.932932 0 -0.360053 
vn 0.947653 0 -0.319302 
vn 0.960595 0 -0.277951 
vn 0.971734 0 -0.236078 
vn 0.981049 0 -0.193762 
vn 0.988521 0 -0.151082 
vn 0.994138 0 -0.108119 
vn 0.997888 0 -0.0649527 
vn 0.999765 0 -0.0216645 
vn 0.999765 0 0.0216645 
vn 1 0 -1.22465e-16 
vn 0.999765 0 -0.0216645 
vn 0.997888 0 0.0649527 
vn 0.994138 0 0.108119 
vn 0.988521 0 0.151082 
vn 0.981049 0 0.193762 
vn 0.971734 0 0.236078 
vn 0.960595 0 0.277951 
vn 0.947653 0 0.319302 
vn 0.932932 0 0.360053 
vn 0.916459 0 0.400128 
vn 0.898266 0 0.439453 
vn 0.878386 0 0.477952 
vn 0.856857 0 0.515554 
vn 0.83372 0 0.552188 
vn 0.809017 0 0.587785 
vn 0.782795 0 0.622279 
vn 0.755104 0 0.655605 
vn 0.725995 0 0.687699 
vn 0.695524 0 0.718503 
vn 0.663746 0 0.747958 
vn 0.630723 0 0.776008 
vn 0.596515 0 0.802602 
vn 0.561187 0 0.827689 
vn 0.524806 0 0.851222 
vn 0.487439 0 0.873157 
vn 0.449158 0 0.893452 
vn 0.410033 0 0.912071 
vn 0.370138 0 0.928977 
vn 0.329549 0 0.944139 
vn 0.28834 0 0.957528 
vn 0.246591 0 0.96912 
vn 0.204378 0 0.978892 
vn 0.161782 0 0.986827 
vn 0.118882 0 0.992908 
vn 0.0757589 0 0.997126 
vn 0.0324935 0 0.999472 
vn -0.0108329 0 0.999941 
vn -0.0541389 0 0.998533 
vn -0.0973433 0 0.995251 
vn -0.140365 0 0.9901 
vn -0.183123 0 0.98309 
vn -0.225537 0 0.974235 
vn -0.267528 0 0.96355 
vn -0.309017 0 0.951057 
vn -0.349926 0 0.936778 
vn -0.390177 0 0.92074 
vn -0.429696 0 0.902974 
vn -0.468408 0 0.883512 
vn -0.506241 0 0.862392 
vn -0.543124 0 0.839653 
vn -0.578987 0 0.815337 
vn -0.613763 0 0.789491 
vn -0.647386 0 0.762162 
vn -0.679794 0 0.733403 
vn -0.710926 0 0.703266 
vn -0.740724 0 0.67181 
vn -0.76913 0 0.639092 
vn -0.796093 0 0.605174 
vn -0.821561 0 0.57012 
vn -0.845487 0 0.533996 
vn -0.867825 0 0.49687 
vn -0.888534 0 0.45881 
vn -0.907575 0 0.419889 
vn -0.924913 0 0.38018 
vn -0.940513 0 0.339757 
vn -0.954348 0 0.298696 
vn -0.966392 0 0.257075 
vn -0.976621 0 0.21497 
vn -0.985016 0 0.172463 
vn -0.991562 0 0.129631 
vn -0.996247 0 0.0865562 
vn -0.999061 0 0.0433188 
vn 0 1 0 
vn -0.999048 0 -0.0436194 
vn -1 0 -2.44929e-16 
vn -0.996195 0 -0.0871557 
vn -0.999048 0 -0.0436194 
vn -0.991445 0 -0.130526 
vn -0.996195 0 -0.0871557 
vn -0.984808 0 -0.173648 
vn -0.991445 0 -0.130526 
vn -0.976296 0 -0.21644 
vn -0.984808 0 -0.173648 
vn -0.965926 0 -0.258819 
vn -0.976296 0 -0.21644 
vn -0.953717 0 -0.300706 
vn -0.965926 0 -0.258819 
vn -0.939693 0 -0.34202 
vn -0.953717 0 -0.300706 
vn -0.92388 0 -0.382683 
vn -0.939693 0 -0.34202 
vn -0.906308 0 -0.422618 
vn -0.92388 0 -0.382683 
vn -0.887011 0 -0.461749 
vn -0.906308 0 -0.422618 
vn -0.866025 0 -0.5 
vn -0.887011 0 -0.461749 
vn -0.843391 0 -0.5373 
vn -0.866025 0 -0.5 
vn -0.819152 0 -0.573576 
vn -0.843391 0 -0.5373 
vn -0.793353 0 -0.608761 
vn -0.819152 0 -0.573576 
vn -0.766044 0 -0.642788 
vn -0.793353 0 -0.608761 
vn -0.737277 0 -0.67559 
vn -0.766044 0 -0.642788 
vn -0.707107 0 -0.707107 
vn -0.737277 0 -0.67559 
vn -0.67559 0 -0.737277 
vn -0.707107 0 -0.707107 
vn -0.642788 0 -0.766044 
vn -0.67559 0 -0.737277 
vn -0.608761 0 -0.793353 
vn -0.642788 0 -0.766044 
vn -0.573576 0 -0.819152 
vn -0.608761 0 -0.793353 
vn -0.5373 0 -0.843391 
vn -0.573576 0 -0.819152 
vn -0.5 0 -0.866025 
vn -0.5373 0 -0.843391 
vn -0.461749 0 -0.887011 
vn -0.5 0 -0.866025 
vn -0.422618 0 -0.906308 
vn -0.461749 0 -0.887011 
vn -0.382683 0 -0.92388 
vn -0.422618 0 -0.906308 
vn -0.34202 0 -0.939693 
vn -0.382683 0 -0.92388 
vn -0.300706 0 -0.953717 
vn -0.34202 0 -0.939693 
vn -0.258819 0 -0.965926 
vn -0.300706 0 -0.953717 
vn -0.21644 0 -0.976296 
vn -0.258819 0 -0.965926 
vn -0.173648 0 -0.984808 
vn -0.21644 0 -0.976296 
vn -0.130526 0 -0.991445 
vn -0.173648 0 -0.984808 
vn -0.0871557 0 -0.996195 
vn -0.130526 0 -0.991445 
vn -0.0436194 0 -0.999048 
vn -0.0871557 0 -0.996195 
vn 1.83697e-16 0 -1 
vn -0.0436194 0 -0.999048 
vn 0.0436194 0 -0.999048 
vn 1.83697e-16 0 -1 
vn 0.0871557 0 -0.996195 
vn 0.0436194 0 -0.999048 
vn 0.130526 0 -0.991445 
vn 0.0871557 0 -0.996195 
vn 0.173648 0 -0.984808 
vn 0.130526 0 -0.991445 
vn 0.21644 0 -0.976296 
vn 0.173648 0 -0.984808 
vn 0.258819 0 -0.965926 
vn 0.21644 0 -0.976296 
vn 0.300706 0 -0.953717 
vn 0.258819 0 -0.965926 
vn 0.34202 0 -0.939693 
vn 0.300706 0 -0.953717 
vn 0.382683 0 -0.92388 
vn 0.34202 0 -0.939693 
vn 0.422618 0 -0.906308 
vn 0.382683 0 -0.92388 
vn 0.461749 0 -0.887011 
vn 0.422618 0 -0.906308 
vn 0.5 0 -0.866025 
vn 0.461749 0 -0.887011 
vn 0.5373 0 -0.843391 
vn 0.5 0 -0.866025 
vn 0.573576 0 -0.819152 
vn 0.5373 0 -0.843391 
vn 0.608761 0 -0.793353 
vn 0.573576 0 -0.819152 
vn 0.642788 0 -0.766044 
vn 0.608761 0 -0.793353 
vn 0.67559 0 -0.737277 
vn 0.642788 0 -0.766044 
vn 0.707107 0 -0.707107 
vn 0.67559 0 -0.737277 
vn 0.737277 0 -0.67559 
vn 0.707107 0 -0.707107 
vn 0.766044 0 -0.642788 
vn 0.737277 0 -0.67559 
vn 0.793353 0 -0.608761 
vn 0.766044 0 -0.642788 
vn 0.819152 0 -0.573576 
vn 0.793353 0 -0.608761 
vn 0.843391 0 -0.5373 
vn 0.819152 0 -0.573576 
vn 0.866025 0 -0.5 
vn 0.843391 0 -0.5373 
vn 0.887011 0 -0.461749 
vn 0.866025 0 -0.5 
vn 0.906308 0 -0.422618 
vn 0.887011 0 -0.461749 
vn 0.92388 0 -0.382683 
vn 0.906308 0 -0.422618 
vn 0.939693 0 -0.34202 
vn 0.92388 0 -0.382683 
vn 0.953717 0 -0.300706 
vn 0.939693 0 -0.34202 
vn 0.965926 0 -0.258819 
vn 0.953717 0 -0.300706 
vn 0.976296 0 -0.21644 
vn 0.965926 0 -0.258819 
vn 0.984808 0 -0.173648 
vn 0.976296 0 -0.21644 
vn 0.991445 0 -0.130526 
vn 0.984808 0 -0.173648 
vn 0.996195 0 -0.0871557 
vn 0.991445 0 -0.130526 
vn 0.999048 0 -0.0436194 
vn 0.996195 0 -0.0871557 
vn 1 0 1.22465e-16 
vn 0.999048 0 -0.0436194 
vn 0.999048 0 0.0436194 
vn 1 0 1.22465e-16 
vn 0.996195 0 0.0871557 
vn 0.999048 0 0.0436194 
vn 0.991445 0 0.130526 
vn 0.996195 0 0.0871557 
vn 0.984808 0 0.173648 
vn 0.991445 0 0.130526 
vn 0.976296 0 0.21644 
vn 0.984808 0 0.173648 
vn 0.965926 0 0.258819 
vn 0.976296 0 0.21644 
vn 0.953717 0 0.300706 
vn 0.965926 0 0.258819 
vn 0.939693 0 0.34202 
vn 0.953717 0 0.300706 
vn 0.92388 0 0.382683 
vn 0.939693 0 0.34202 
vn 0.906308 0 0.422618 
vn 0.92388 0 0.382683 
vn 0.887011 0 0.461749 
vn 0.906308 0 0.422618 
vn 0.866025 0 0.5 
vn 0.887011 0 0.461749 
vn 0.843391 0 0.5373 
vn 0.866025 0 0.5 
vn 0.819152 0 0.573576 
vn 0.843391 0 0.5373 
vn 0.793353 0 0.608761 
vn 0.819152 0 0.573576 
vn 0.766044 0 0.642788 
vn 0.793353 0 0.608761 
vn 0.737277 0 0.67559 
vn 0.766044 0 0.642788 
vn 0.707107 0 0.707107 
vn 0.737277 0 0.67559 
vn 0.67559 0 0.737277 
vn 0.707107 0 0.707107 
vn 0.642788 0 0.766044 
vn 0.67559 0 0.737277 
vn 0.608761 0 0.793353 
vn 0.642788 0 0.766044 
vn 0.573576 0 0.819152 
vn 0.608761 0 0.793353 
vn 0.5373 0 0.843391 
vn 0.573576 0 0.819152 
vn 0.5 0 0.866025 
vn 0.5373 0 0.843391 
vn 0.461749 0 0.887011 
vn 0.5 0 0.866025 
vn 0.422618 0 0.906308 
vn 0.461749 0 0.887011 
vn 0.382683 0 0.92388 
vn 0.422618 0 0.906308 
vn 0.34202 0 0.939693 
vn 0.382683 0 0.92388 
vn 0.300706 0 0.953717 
vn 0.34202 0 0.939693 
vn 0.258819 0 0.965926 
vn 0.300706 0 0.953717 
vn 0.21644 0 0.976296 
vn 0.258819 0 0.965926 
vn 0.173648 0 0.984808 
vn 0.21644 0 0.976296 
vn 0.130526 0 0.991445 
vn 0.173648 0 0.984808 
vn 0.0871557 0 0.996195 
vn 0.130526 0 0.991445 
vn 0.0436194 0 0.999048 
vn 0.0871557 0 0.996195 
vn -6.12323e-17 0 1 
vn 0.0436194 0 0.999048 
vn -0.0436194 0 0.999048 
vn -6.12323e-17 0 1 
vn -0.0871557 0 0.996195 
vn -0.0436194 0 0.999048 
vn -0.130526 0 0.991445 
vn -0.0871557 0 0.996195 
vn -0.173648 0 0.984808 
vn -0.130526 0 0.991445 
vn -0.21644 0 0.976296 
vn -0.173648 0 0.984808 
vn -0.258819 0 0.965926 
vn -0.21644 0 0.976296 
vn -0.300706 0 0.953717 
vn -0.258819 0 0.965926 
vn -0.34202 0 0.939693 
vn -0.300706 0 0.953717 
vn -0.382683 0 0.92388 
vn -0.34202 0 0.939693 
vn -0.422618 0 0.906308 
vn -0.382683 0 0.92388 
vn -0.461749 0 0.887011 
vn -0.422618 0 0.906308 
vn -0.5 0 0.866025 
vn -0.461749 0 0.887011 
vn -0.5373 0 0.843391 
vn -0.5 0 0.866025 
vn -0.573576 0 0.819152 
vn -0.5373 0 0.843391 
vn -0.608761 0 0.793353 
vn -0.573576 0 0.819152 
vn -0.642788 0 0.766044 
vn -0.608761 0 0.793353 
vn -0.67559 0 0.737277 
vn -0.642788 0 0.766044 
vn -0.707107 0 0.707107 
vn -0.67559 0 0.737277 
vn -0.737277 0 0.67559 
vn -0.707107 0 0.707107 
vn -0.766044 0 0.642788 
vn -0.737277 0 0.67559 
vn -0.793353 0 0.608761 
vn -0.766044 0 0.642788 
vn -0.819152 0 0.573576 
vn -0.793353 0 0.608761 
vn -0.843391 0 0.5373 
vn -0.819152 0 0.573576 
vn -0.866025 0 0.5 
vn -0.843391 0 0.5373 
vn -0.887011 0 0.461749 
vn -0.866025 0 0.5 
vn -0.906308 0 0.422618 
vn -0.887011 0 0.461749 
vn -0.92388 0 0.382683 
vn -0.906308 0 0.422618 
vn -0.939693 0 0.34202 
vn -0.92388 0 0.382683 
vn -0.953717 0 0.300706 
vn -0.939693 0 0.34202 
vn -0.965926 0 0.258819 
vn -0.953717 0 0.300706 
vn -0.976296 0 0.21644 
vn -0.965926 0 0.258819 
vn -0.984808 0 0.173648 
vn -0.976296 0 0.21644 
vn -0.991445 0 0.130526 
vn -0.984808 0 0.173648 
vn -0.996195 0 0.0871557 
vn -0.991445 0 0.130526 
vn -0.999048 0 0.0436194 
vn -0.996195 0 0.0871557 
vn 0 1 0 
usemtl 0.615686_0.811765_0.929412_0.000000_0.000000
o mesh0
f 147//1 1//1 2//1 
f 2//1 3//1 147//1 
f 3//1 4//1 147//1 
f 4//1 5//1 147//1 
f 5//1 6//1 147//1 
f 6//1 7//1 147//1 
f 7//1 8//1 147//1 
f 8//1 9//1 147//1 
f 9//1 10//1 147//1 
f 10//1 11//1 147//1 
f 11//1 12//1 147//1 
f 12//1 13//1 147//1 
f 13//1 14//1 147//1 
f 14//1 15//1 147//1 
f 15//1 16//1 147//1 
f 16//1 17//1 147//1 
f 17//1 18//1 147//1 
f 18//1 19//1 147//1 
f 19//1 20//1 147//1 
f 20//1 21//1 147//1 
f 21//1 22//1 147//1 
f 22//1 23//1 147//1 
f 23//1 24//1 147//1 
f 24//1 25//1 147//1 
f 25//1 26//1 147//1 
f 26//1 27//1 147//1 
f 27//1 28//1 147//1 
f 28//1 29//1 147//1 
f 29//1 30//1 147//1 
f 30//1 31//1 147//1 
f 31//1 32//1 147//1 
f 32//1 33//1 147//1 
f 33//1 34//1 147//1 
f 34//1 35//1 147//1 
f 35//1 36//1 147//1 
f 36//1 37//1 147//1 
f 37//1 38//1 147//1 
f 38//1 39//1 147//1 
f 39//1 40//1 147//1 
f 40//1 41//1 147//1 
f 41//1 42//1 147//1 
f 42//1 43//1 147//1 
f 43//1 44//1 147//1 
f 44//1 45//1 147//1 
f 45//1 46//1 147//1 
f 46//1 47//1 147//1 
f 47//1 48//1 147//1 
f 48//1 49//1 147//1 
f 49//1 50//1 147//1 
f 50//1 51//1 147//1 
f 51//1 52//1 147//1 
f 52//1 53//1 147//1 
f 53//1 54//1 147//1 
f 54//1 55//1 147//1 
f 55//1 56//1 147//1 
f 56//1 57//1 147//1 
f 57//1 58//1 147//1 
f 58//1 59//1 147//1 
f 59//1 60//1 147//1 
f 60//1 61//1 147//1 
f 61//1 62//1 147//1 
f 62//1 63//1 147//1 
f 63//1 64//1 147//1 
f 64//1 65//1 147//1 
f 65//1 66//1 147//1 
f 66//1 67//1 147//1 
f 67//1 68//1 147//1 
f 68//1 69//1 147//1 
f 69//1 70//1 147//1 
f 70//1 71//1 147//1 
f 71//1 72//1 147//1 
f 72//1 73//1 147//1 
f 73//1 74//1 147//1 
f 74//1 75//1 147//1 
f 75//1 76//1 147//1 
f 76//1 77//1 147//1 
f 77//1 78//1 147//1 
f 78//1 79//1 147//1 
f 79//1 80//1 147//1 
f 80//1 81//1 147//1 
f 81//1 82//1 147//1 
f 82//1 83//1 147//1 
f 83//1 84//1 147//1 
f 84//1 85//1 147//1 
f 85//1 86//1 147//1 
f 86//1 87//1 147//1 
f 87//1 88//1 147//1 
f 88//1 89//1 147//1 
f 89//1 90//1 147//1 
f 90//1 91//1 147//1 
f 91//1 92//1 147//1 
f 92//1 93//1 147//1 
f 93//1 94//1 147//1 
f 94//1 95//1 147//1 
f 95//1 96//1 147//1 
f 96//1 97//1 147//1 
f 97//1 98//1 147//1 
f 98//1 99//1 147//1 
f 99//1 100//1 147//1 
f 100//1 101//1 147//1 
f 101//1 102//1 147//1 
f 102//1 103//1 147//1 
f 103//1 104//1 147//1 
f 104//1 105//1 147//1 
f 105//1 106//1 147//1 
f 106//1 107//1 147//1 
f 107//1 108//1 147//1 
f 108//1 109//1 147//1 
f 109//1 110//1 147//1 
f 110//1 111//1 147//1 
f 111//1 112//1 147//1 
f 112//1 113//1 147//1 
f 113//1 114//1 147//1 
f 114//1 115//1 147//1 
f 115//1 116//1 147//1 
f 116//1 117//1 147//1 
f 117//1 118//1 147//1 
f 118//1 119//1 147//1 
f 119//1 120//1 147//1 
f 120//1 121//1 147//1 
f 121//1 122//1 147//1 
f 122//1 123//1 147//1 
f 123//1 124//1 147//1 
f 124//1 125//1 147//1 
f 125//1 126//1 147//1 
f 126//1 127//1 147//1 
f 127//1 128//1 147//1 
f 128//1 129//1 147//1 
f 129//1 130//1 147//1 
f 130//1 131//1 147//1 
f 131//1 132//1 147//1 
f 132//1 133//1 147//1 
f 133//1 134//1 147//1 
f 134//1 135//1 147//1 
f 135//1 136//1 147//1 
f 136//1 137//1 147//1 
f 137//1 138//1 147//1 
f 138//1 139//1 147//1 
f 139//1 140//1 147//1 
f 140//1 141//1 147//1 
f 141//1 142//1 147//1 
f 142//1 143//1 147//1 
f 143//1 144//1 147//1 
f 144//1 145//1 147//1 
f 145//1 146//1 147//1 
f 146//1 1//1 147//1 
o mesh1
f 73//2 148//2 149//3 
f 74//3 149//3 150//4 
f 75//4 150//4 151//5 
f 76//5 151//5 152//6 
f 77//6 152//6 153//7 
f 78//7 153//7 154//8 
f 79//8 154//8 155//9 
f 80//9 155//9 156//10 
f 81//10 156//10 157//11 
f 82//11 157//11 158//12 
f 83//12 158//12 159//13 
f 84//13 159//13 160//14 
f 85//14 160//14 161//15 
f 86//15 161//15 162//16 
f 87//16 162//16 163//17 
f 88//17 163//17 164//18 
f 89//18 164//18 165//19 
f 90//19 165//19 166//20 
f 91//20 166//20 167//21 
f 92//21 167//21 168//22 
f 93//22 168//22 169//23 
f 94//23 169//23 170//24 
f 95//24 170//24 171//25 
f 96//25 171//25 172//26 
f 97//26 172//26 173//27 
f 98//27 173//27 174//28 
f 99//28 174//28 175//29 
f 100//29 175//29 176//30 
f 101//30 176//30 177//31 
f 102//31 177//31 178//32 
f 103//32 178//32 179//33 
f 104//33 179//33 180//34 
f 105//34 180//34 181//35 
f 106//35 181//35 182//36 
f 107//36 182//36 183//37 
f 108//37 183//37 184//38 
f 109//38 184//38 185//39 
f 110//39 185//39 186//40 
f 111//40 186//40 187//41 
f 112//41 187//41 188//42 
f 113//42 188//42 189//43 
f 114//43 189//43 190//44 
f 115//44 190//44 191//45 
f 116//45 191//45 192//46 
f 117//46 192//46 193//47 
f 118//47 193//47 194//48 
f 119//48 194//48 195//49 
f 120//49 195//49 196//50 
f 121//50 196//50 197//51 
f 122//51 197//51 198//52 
f 123//52 198//52 199//53 
f 124//53 199//53 200//54 
f 125//54 200//54 201//55 
f 126//55 201//55 202//56 
f 127//56 202//56 203//57 
f 128//57 203//57 204//58 
f 129//58 204//58 205//59 
f 130//59 205//59 206//60 
f 131//60 206//60 207//61 
f 132//61 207//61 208//62 
f 133//62 208//62 209//63 
f 134//63 209//63 210//64 
f 135//64 210//64 211//65 
f 136//65 211//65 212//66 
f 137//66 212//66 213//67 
f 138//67 213//67 214//68 
f 139//68 214//68 215//69 
f 140//69 215//69 216//70 
f 141//70 216//70 217//71 
f 142//71 217//71 218//72 
f 143//72 218//72 219//73 
f 144//73 219//73 220//74 
f 221//75 1//75 146//76 
f 145//77 220//74 222//76 
f 222//76 146//76 145//77 
f 1//75 221//75 223//78 
f 2//78 223//78 224//79 
f 3//79 224//79 225//80 
f 4//80 225//80 226//81 
f 5//81 226//81 227//82 
f 6//82 227//82 228//83 
f 7//83 228//83 229//84 
f 8//84 229//84 230//85 
f 9//85 230//85 231//86 
f 10//86 231//86 232//87 
f 11//87 232//87 233//88 
f 12//88 233//88 234//89 
f 13//89 234//89 235//90 
f 14//90 235//90 236//91 
f 15//91 236//91 237//92 
f 16//92 237//92 238//93 
f 17//93 238//93 239//94 
f 18//94 239//94 240//95 
f 19//95 240//95 241//96 
f 20//96 241//96 242//97 
f 21//97 242//97 243//98 
f 22//98 243//98 244//99 
f 23//99 244//99 245//100 
f 24//100 245//100 246//101 
f 25//101 246//101 247//102 
f 26//102 247//102 248//103 
f 27//103 248//103 249//104 
f 28//104 249//104 250//105 
f 29//105 250//105 251//106 
f 30//106 251//106 252//107 
f 31//107 252//107 253//108 
f 32//108 253//108 254//109 
f 33//109 254//109 255//110 
f 34//110 255//110 256//111 
f 35//111 256//111 257//112 
f 36//112 257//112 258//113 
f 37//113 258//113 259//114 
f 38//114 259//114 260//115 
f 39//115 260//115 261//116 
f 40//116 261//116 262//117 
f 41//117 262//117 263//118 
f 42//118 263//118 264//119 
f 43//119 264//119 265//120 
f 44//120 265//120 266//121 
f 45//121 266//121 267//122 
f 46//122 267//122 268//123 
f 47//123 268//123 269//124 
f 48//124 269//124 270//125 
f 49//125 270//125 271//126 
f 50//126 271//126 272//127 
f 51//127 272//127 273//128 
f 52//128 273//128 274//129 
f 53//129 274//129 275//130 
f 54//130 275//130 276//131 
f 55//131 276//131 277//132 
f 56//132 277//132 278//133 
f 57//133 278//133 279//134 
f 58//134 279//134 280//135 
f 59//135 280//135 281//136 
f 60//136 281//136 282//137 
f 61//137 282//137 283//138 
f 62//138 283//138 284//139 
f 63//139 284//139 285//140 
f 64//140 285//140 286//141 
f 65//141 286//141 287//142 
f 66//142 287//142 288//143 
f 67//143 288//143 289//144 
f 68//144 289//144 290//145 
f 69//145 290//145 291//146 
f 70//146 291//146 292//147 
f 71//147 292//147 293//148 
f 72//148 293//148 148//2 
f 148//2 73//2 72//148 
f 293//148 72//148 71//147 
f 292//147 71//147 70//146 
f 291//146 70//146 69//145 
f 290//145 69//145 68//144 
f 289//144 68//144 67//143 
f 288//143 67//143 66//142 
f 287//142 66//142 65//141 
f 286//141 65//141 64//140 
f 285//140 64//140 63//139 
f 284//139 63//139 62//138 
f 283//138 62//138 61//137 
f 282//137 61//137 60//136 
f 281//136 60//136 59//135 
f 280//135 59//135 58//134 
f 279//134 58//134 57//133 
f 278//133 57//133 56//132 
f 277//132 56//132 55//131 
f 276//131 55//131 54//130 
f 275//130 54//130 53//129 
f 274//129 53//129 52//128 
f 273//128 52//128 51//127 
f 272//127 51//127 50//126 
f 271//126 50//126 49//125 
f 270//125 49//125 48//124 
f 269//124 48//124 47//123 
f 268//123 47//123 46//122 
f 267//122 46//122 45//121 
f 266//121 45//121 44//120 
f 265//120 44//120 43//119 
f 264//119 43//119 42//118 
f 263//118 42//118 41//117 
f 262//117 41//117 40//116 
f 261//116 40//116 39//115 
f 260//115 39//115 38//114 
f 259//114 38//114 37//113 
f 258//113 37//113 36//112 
f 257//112 36//112 35//111 
f 256//111 35//111 34//110 
f 255//110 34//110 33//109 
f 254//109 33//109 32//108 
f 253//108 32//108 31//107 
f 252//107 31//107 30//106 
f 251//106 30//106 29//105 
f 250//105 29//105 28//104 
f 249//104 28//104 27//103 
f 248//103 27//103 26//102 
f 247//102 26//102 25//101 
f 246//101 25//101 24//100 
f 245//100 24//100 23//99 
f 244//99 23//99 22//98 
f 243//98 22//98 21//97 
f 242//97 21//97 20//96 
f 241//96 20//96 19//95 
f 240//95 19//95 18//94 
f 239//94 18//94 17//93 
f 238//93 17//93 16//92 
f 237//92 16//92 15//91 
f 236//91 15//91 14//90 
f 235//90 14//90 13//89 
f 234//89 13//89 12//88 
f 233//88 12//88 11//87 
f 232//87 11//87 10//86 
f 231//86 10//86 9//85 
f 230//85 9//85 8//84 
f 229//84 8//84 7//83 
f 228//83 7//83 6//82 
f 227//82 6//82 5//81 
f 226//81 5//81 4//80 
f 225//80 4//80 3//79 
f 224//79 3//79 2//78 
f 223//78 2//78 1//75 
f 146//76 222//76 221//75 
f 220//74 145//77 144//73 
f 219//73 144//73 143//72 
f 218//72 143//72 142//71 
f 217//71 142//71 141//70 
f 216//70 141//70 140//69 
f 215//69 140//69 139//68 
f 214//68 139//68 138//67 
f 213//67 138//67 137//66 
f 212//66 137//66 136//65 
f 211//65 136//65 135//64 
f 210//64 135//64 134//63 
f 209//63 134//63 133//62 
f 208//62 133//62 132//61 
f 207//61 132//61 131//60 
f 206//60 131//60 130//59 
f 205//59 130//59 129//58 
f 204//58 129//58 128//57 
f 203//57 128//57 127//56 
f 202//56 127//56 126//55 
f 201//55 126//55 125//54 
f 200//54 125//54 124//53 
f 199//53 124//53 123//52 
f 198//52 123//52 122//51 
f 197//51 122//51 121//50 
f 196//50 121//50 120//49 
f 195//49 120//49 119//48 
f 194//48 119//48 118//47 
f 193//47 118//47 117//46 
f 192//46 117//46 116//45 
f 191//45 116//45 115//44 
f 190//44 115//44 114//43 
f 189//43 114//43 113//42 
f 188//42 113//42 112//41 
f 187//41 112//41 111//40 
f 186//40 111//40 110//39 
f 185//39 110//39 109//38 
f 184//38 109//38 108//37 
f 183//37 108//37 107//36 
f 182//36 107//36 106//35 
f 181//35 106//35 105//34 
f 180//34 105//34 104//33 
f 179//33 104//33 103//32 
f 178//32 103//32 102//31 
f 177//31 102//31 101//30 
f 176//30 101//30 100//29 
f 175//29 100//29 99//28 
f 174//28 99//28 98//27 
f 173//27 98//27 97//26 
f 172//26 97//26 96//25 
f 171//25 96//25 95//24 
f 170//24 95//24 94//23 
f 169//23 94//23 93//22 
f 168//22 93//22 92//21 
f 167//21 92//21 91//20 
f 166//20 91//20 90//19 
f 165//19 90//19 89//18 
f 164//18 89//18 88//17 
f 163//17 88//17 87//16 
f 162//16 87//16 86//15 
f 161//15 86//15 85//14 
f 160//14 85//14 84//13 
f 159//13 84//13 83//12 
f 158//12 83//12 82//11 
f 157//11 82//11 81//10 
f 156//10 81//10 80//9 
f 155//9 80//9 79//8 
f 154//8 79//8 78//7 
f 153//7 78//7 77//6 
f 152//6 77//6 76//5 
f 151//5 76//5 75//4 
f 150//4 75//4 74//3 
f 149//3 74//3 73//2 
o mesh2
f 211//149 210//149 294//149 
f 210//149 209//149 295//149 
f 209//149 208//149 296//149 
f 208//149 207//149 297//149 
f 213//149 212//149 298//149 
f 212//149 211//149 299//149 
f 295//149 294//149 210//149 
f 297//149 296//149 208//149 
f 203//149 202//149 300//149 
f 202//149 201//149 301//149 
f 189//149 188//149 302//149 
f 188//149 187//149 303//149 
f 173//149 172//149 304//149 
f 172//149 171//149 305//149 
f 299//149 298//149 212//149 
f 296//149 295//149 209//149 
f 207//149 206//149 306//149 
f 206//149 205//149 307//149 
f 204//149 203//149 308//149 
f 301//149 300//149 202//149 
f 195//149 194//149 309//149 
f 194//149 193//149 310//149 
f 193//149 192//149 311//149 
f 192//149 191//149 312//149 
f 191//149 190//149 313//149 
f 190//149 189//149 314//149 
f 303//149 302//149 188//149 
f 187//149 186//149 315//149 
f 181//149 180//149 316//149 
f 180//149 179//149 317//149 
f 179//149 178//149 318//149 
f 178//149 177//149 319//149 
f 177//149 176//149 320//149 
f 176//149 175//149 321//149 
f 174//149 173//149 322//149 
f 305//149 304//149 172//149 
f 170//149 169//149 323//149 
f 169//149 168//149 324//149 
f 227//149 325//149 326//149 
f 226//149 327//149 325//149 
f 225//149 328//149 327//149 
f 224//149 329//149 328//149 
f 294//149 299//149 211//149 
f 307//149 306//149 206//149 
f 205//149 204//149 330//149 
f 300//149 308//149 203//149 
f 196//149 195//149 331//149 
f 310//149 309//149 194//149 
f 312//149 311//149 192//149 
f 314//149 313//149 190//149 
f 315//149 303//149 187//149 
f 186//149 185//149 332//149 
f 317//149 316//149 180//149 
f 319//149 318//149 178//149 
f 321//149 320//149 176//149 
f 175//149 174//149 333//149 
f 304//149 322//149 173//149 
f 171//149 170//149 334//149 
f 324//149 323//149 169//149 
f 168//149 167//149 335//149 
f 228//149 326//149 336//149 
f 325//149 227//149 226//149 
f 328//149 225//149 224//149 
f 223//149 337//149 329//149 
f 221//149 338//149 337//149 
f 220//149 219//149 339//149 
f 219//149 218//149 340//149 
f 218//149 217//149 341//149 
f 217//149 216//149 342//149 
f 216//149 215//149 343//149 
f 306//149 297//149 207//149 
f 308//149 330//149 204//149 
f 201//149 200//149 344//149 
f 200//149 199//149 345//149 
f 197//149 196//149 346//149 
f 309//149 331//149 195//149 
f 313//149 312//149 191//149 
f 332//149 315//149 186//149 
f 318//149 317//149 179//149 
f 333//149 321//149 175//149 
f 334//149 305//149 171//149 
f 335//149 324//149 168//149 
f 232//149 347//149 348//149 
f 231//149 349//149 347//149 
f 230//149 350//149 349//149 
f 229//149 336//149 350//149 
f 326//149 228//149 227//149 
f 329//149 224//149 223//149 
f 337//149 223//149 221//149 
f 338//149 222//149 220//149 
f 341//149 340//149 218//149 
f 343//149 342//149 216//149 
f 215//149 214//149 351//149 
f 214//149 213//149 352//149 
f 330//149 307//149 205//149 
f 345//149 344//149 200//149 
f 199//149 198//149 353//149 
f 198//149 197//149 354//149 
f 331//149 346//149 196//149 
f 302//149 314//149 189//149 
f 185//149 184//149 355//149 
f 184//149 183//149 356//149 
f 320//149 319//149 177//149 
f 323//149 334//149 170//149 
f 167//149 166//149 357//149 
f 166//149 165//149 358//149 
f 347//149 232//149 231//149 
f 350//149 230//149 229//149 
f 327//149 226//149 225//149 
f 339//149 338//149 220//149 
f 342//149 341//149 217//149 
f 352//149 351//149 214//149 
f 344//149 301//149 201//149 
f 354//149 353//149 198//149 
f 311//149 310//149 193//149 
f 356//149 355//149 184//149 
f 183//149 182//149 359//149 
f 182//149 181//149 360//149 
f 322//149 333//149 174//149 
f 358//149 357//149 166//149 
f 165//149 164//149 361//149 
f 164//149 163//149 362//149 
f 155//149 154//149 363//149 
f 154//149 153//149 364//149 
f 152//149 151//149 365//149 
f 151//149 150//149 366//149 
f 292//149 367//149 368//149 
f 291//149 369//149 367//149 
f 290//149 370//149 369//149 
f 289//149 371//149 370//149 
f 349//149 231//149 230//149 
f 221//149 222//149 338//149 
f 351//149 343//149 215//149 
f 353//149 345//149 199//149 
f 355//149 332//149 185//149 
f 360//149 359//149 182//149 
f 357//149 335//149 167//149 
f 362//149 361//149 164//149 
f 364//149 363//149 154//149 
f 153//149 152//149 372//149 
f 366//149 365//149 151//149 
f 150//149 149//149 373//149 
f 367//149 292//149 291//149 
f 370//149 290//149 289//149 
f 287//149 374//149 375//149 
f 286//149 376//149 374//149 
f 285//149 377//149 376//149 
f 284//149 378//149 377//149 
f 272//149 379//149 380//149 
f 271//149 381//149 379//149 
f 256//149 382//149 383//149 
f 255//149 384//149 382//149 
f 254//149 385//149 384//149 
f 253//149 386//149 385//149 
f 247//149 387//149 388//149 
f 246//149 389//149 387//149 
f 336//149 229//149 228//149 
f 298//149 352//149 213//149 
f 359//149 356//149 183//149 
f 361//149 358//149 165//149 
f 163//149 162//149 390//149 
f 162//149 161//149 391//149 
f 161//149 160//149 392//149 
f 160//149 159//149 393//149 
f 157//149 156//149 394//149 
f 156//149 155//149 395//149 
f 372//149 364//149 153//149 
f 373//149 366//149 150//149 
f 369//149 291//149 290//149 
f 288//149 375//149 371//149 
f 374//149 287//149 286//149 
f 377//149 285//149 284//149 
f 283//149 396//149 378//149 
f 282//149 397//149 396//149 
f 278//149 398//149 399//149 
f 277//149 400//149 398//149 
f 276//149 401//149 400//149 
f 275//149 402//149 401//149 
f 273//149 380//149 403//149 
f 379//149 272//149 271//149 
f 382//149 256//149 255//149 
f 385//149 254//149 253//149 
f 251//149 404//149 405//149 
f 250//149 406//149 404//149 
f 249//149 407//149 406//149 
f 248//149 388//149 407//149 
f 387//149 247//149 246//149 
f 245//149 408//149 389//149 
f 243//149 409//149 410//149 
f 242//149 411//149 409//149 
f 237//149 412//149 413//149 
f 236//149 414//149 412//149 
f 234//149 415//149 416//149 
f 233//149 348//149 415//149 
f 340//149 339//149 219//149 
f 316//149 360//149 181//149 
f 391//149 390//149 162//149 
f 393//149 392//149 160//149 
f 395//149 394//149 156//149 
f 365//149 372//149 152//149 
f 149//149 148//149 417//149 
f 293//149 368//149 417//149 
f 371//149 289//149 288//149 
f 376//149 286//149 285//149 
f 396//149 283//149 282//149 
f 281//149 418//149 397//149 
f 398//149 278//149 277//149 
f 401//149 276//149 275//149 
f 274//149 403//149 402//149 
f 380//149 273//149 272//149 
f 268//149 419//149 420//149 
f 267//149 421//149 419//149 
f 263//149 422//149 423//149 
f 262//149 424//149 422//149 
f 384//149 255//149 254//149 
f 252//149 405//149 386//149 
f 404//149 251//149 250//149 
f 407//149 249//149 248//149 
f 389//149 246//149 245//149 
f 244//149 410//149 408//149 
f 409//149 243//149 242//149 
f 241//149 425//149 411//149 
f 238//149 413//149 426//149 
f 412//149 237//149 236//149 
f 235//149 416//149 414//149 
f 415//149 234//149 233//149 
f 346//149 354//149 197//149 
f 392//149 391//149 161//149 
f 159//149 158//149 427//149 
f 158//149 157//149 428//149 
f 363//149 395//149 155//149 
f 417//149 148//149 293//149 
f 375//149 288//149 287//149 
f 397//149 282//149 281//149 
f 280//149 429//149 418//149 
f 279//149 399//149 429//149 
f 400//149 277//149 276//149 
f 403//149 274//149 273//149 
f 419//149 268//149 267//149 
f 266//149 430//149 421//149 
f 264//149 423//149 431//149 
f 422//149 263//149 262//149 
f 261//149 432//149 424//149 
f 260//149 433//149 432//149 
f 386//149 253//149 252//149 
f 406//149 250//149 249//149 
f 408//149 245//149 244//149 
f 411//149 242//149 241//149 
f 240//149 434//149 425//149 
f 239//149 426//149 434//149 
f 413//149 238//149 237//149 
f 416//149 235//149 234//149 
f 390//149 362//149 163//149 
f 428//149 427//149 158//149 
f 417//149 373//149 149//149 
f 378//149 284//149 283//149 
f 429//149 280//149 279//149 
f 402//149 275//149 274//149 
f 270//149 435//149 381//149 
f 269//149 420//149 435//149 
f 421//149 267//149 266//149 
f 265//149 431//149 430//149 
f 423//149 264//149 263//149 
f 432//149 261//149 260//149 
f 405//149 252//149 251//149 
f 410//149 244//149 243//149 
f 434//149 240//149 239//149 
f 414//149 236//149 235//149 
f 427//149 393//149 159//149 
f 368//149 293//149 292//149 
f 399//149 279//149 278//149 
f 435//149 270//149 269//149 
f 430//149 266//149 265//149 
f 424//149 262//149 261//149 
f 259//149 436//149 433//149 
f 258//149 437//149 436//149 
f 388//149 248//149 247//149 
f 426//149 239//149 238//149 
f 394//149 428//149 157//149 
f 381//149 271//149 270//149 
f 431//149 265//149 264//149 
f 436//149 259//149 258//149 
f 257//149 383//149 437//149 
f 425//149 241//149 240//149 
f 418//149 281//149 280//149 
f 433//149 260//149 259//149 
f 383//149 257//149 256//149 
f 420//149 269//149 268//149 
f 348//149 233//149 232//149 
f 437//149 258//149 257//149 
o mesh3
f 337//150 338//151 438//151 
f 329//152 337//150 439//153 
f 328//154 329//152 440//155 
f 327//156 328//154 441//157 
f 325//158 327//156 442//159 
f 326//160 325//158 443//161 
f 336//162 326//160 444//163 
f 350//164 336//162 445//165 
f 349//166 350//164 446//167 
f 347//168 349//166 447//169 
f 348//170 347//168 448//171 
f 415//172 348//170 449//173 
f 416//174 415//172 450//175 
f 414//176 416//174 451//177 
f 412//178 414//176 452//179 
f 413//180 412//178 453//181 
f 426//182 413//180 454//183 
f 434//184 426//182 455//185 
f 425//186 434//184 456//187 
f 411//188 425//186 457//189 
f 409//190 411//188 458//191 
f 410//192 409//190 459//193 
f 408//194 410//192 460//195 
f 389//196 408//194 461//197 
f 387//198 389//196 462//199 
f 388//200 387//198 463//201 
f 407//202 388//200 464//203 
f 406//204 407//202 465//205 
f 404//206 406//204 466//207 
f 405//208 404//206 467//209 
f 386//210 405//208 468//211 
f 385//212 386//210 469//213 
f 384//214 385//212 470//215 
f 382//216 384//214 471//217 
f 383//218 382//216 472//219 
f 437//220 383//218 473//221 
f 436//222 437//220 474//223 
f 433//224 436//222 475//225 
f 432//226 433//224 476//227 
f 424//228 432//226 477//229 
f 422//230 424//228 478//231 
f 423//232 422//230 479//233 
f 431//234 423//232 480//235 
f 430//236 431//234 481//237 
f 421//238 430//236 482//239 
f 419//240 421//238 483//241 
f 420//242 419//240 484//243 
f 435//244 420//242 485//245 
f 381//246 435//244 486//247 
f 379//248 381//246 487//249 
f 380//250 379//248 488//251 
f 403//252 380//250 489//253 
f 402//254 403//252 490//255 
f 401//256 402//254 491//257 
f 400//258 401//256 492//259 
f 398//260 400//258 493//261 
f 399//262 398//260 494//263 
f 429//264 399//262 495//265 
f 418//266 429//264 496//267 
f 397//268 418//266 497//269 
f 396//270 397//268 498//271 
f 378//272 396//270 499//273 
f 377//274 378//272 500//275 
f 376//276 377//274 501//277 
f 374//278 376//276 502//279 
f 375//280 374//278 503//281 
f 371//282 375//280 504//283 
f 370//284 371//282 505//285 
f 369//286 370//284 506//287 
f 367//288 369//286 507//289 
f 368//290 367//288 508//291 
f 417//292 368//290 509//293 
f 373//294 417//292 510//295 
f 366//296 373//294 511//297 
f 365//298 366//296 512//299 
f 372//300 365//298 513//301 
f 364//302 372//300 514//303 
f 363//304 364//302 515//305 
f 395//306 363//304 516//307 
f 394//308 395//306 517//309 
f 428//310 394//308 518//311 
f 427//312 428//310 519//313 
f 393//314 427//312 520//315 
f 392//316 393//314 521//317 
f 391//318 392//316 522//319 
f 390//320 391//318 523//321 
f 362//322 390//320 524//323 
f 361//324 362//322 525//325 
f 358//326 361//324 526//327 
f 357//328 358//326 527//329 
f 335//330 357//328 528//331 
f 324//332 335//330 529//333 
f 323//334 324//332 530//335 
f 334//336 323//334 531//337 
f 305//338 334//336 532//339 
f 304//340 305//338 533//341 
f 322//342 304//340 534//343 
f 333//344 322//342 535//345 
f 321//346 333//344 536//347 
f 320//348 321//346 537//349 
f 319//350 320//348 538//351 
f 318//352 319//350 539//353 
f 317//354 318//352 540//355 
f 316//356 317//354 541//357 
f 360//358 316//356 542//359 
f 359//360 360//358 543//361 
f 356//362 359//360 544//363 
f 355//364 356//362 545//365 
f 332//366 355//364 546//367 
f 315//368 332//366 547//369 
f 303//370 315//368 548//371 
f 302//372 303//370 549//373 
f 314//374 302//372 550//375 
f 313//376 314//374 551//377 
f 312//378 313//376 552//379 
f 311//380 312//378 553//381 
f 310//382 311//380 554//383 
f 309//384 310//382 555//385 
f 331//386 309//384 556//387 
f 346//388 331//386 557//389 
f 354//390 346//388 558//391 
f 353//392 354//390 559//393 
f 345//394 353//392 560//395 
f 344//396 345//394 561//397 
f 301//398 344//396 562//399 
f 300//400 301//398 563//401 
f 308//402 300//400 564//403 
f 330//404 308//402 565//405 
f 307//406 330//404 566//407 
f 306//408 307//406 567//409 
f 297//410 306//408 568//411 
f 296//412 297//410 569//413 
f 295//414 296//412 570//415 
f 294//416 295//414 571//417 
f 299//418 294//416 572//419 
f 298//420 299//418 573//421 
f 352//422 298//420 574//423 
f 351//424 352//422 575//425 
f 343//426 351//424 576//427 
f 342//428 343//426 577//429 
f 341//430 342//428 578//431 
f 340//432 341//430 579//433 
f 339//434 340//432 580//435 
f 338//151 339//434 581//434 
f 581//434 438//151 338//151 
f 580//435 581//434 339//434 
f 579//433 580//435 340//432 
f 578//431 579//433 341//430 
f 577//429 578//431 342//428 
f 576//427 577//429 343//426 
f 575//425 576//427 351//424 
f 574//423 575//425 352//422 
f 573//421 574//423 298//420 
f 572//419 573//421 299//418 
f 571//417 572//419 294//416 
f 570//415 571//417 295//414 
f 569//413 570//415 296//412 
f 568//411 569//413 297//410 
f 567//409 568//411 306//408 
f 566//407 567//409 307//406 
f 565//405 566//407 330//404 
f 564//403 565//405 308//402 
f 563//401 564//403 300//400 
f 562//399 563//401 301//398 
f 561//397 562//399 344//396 
f 560//395 561//397 345//394 
f 559//393 560//395 353//392 
f 558//391 559//393 354//390 
f 557//389 558//391 346//388 
f 556//387 557//389 331//386 
f 555//385 556//387 309//384 
f 554//383 555//385 310//382 
f 553//381 554//383 311//380 
f 552//379 553//381 312//378 
f 551//377 552//379 313//376 
f 550//375 551//377 314//374 
f 549//373 550//375 302//372 
f 548//371 549//373 303//370 
f 547//369 548//371 315//368 
f 546//367 547//369 332//366 
f 545//365 546//367 355//364 
f 544//363 545//365 356//362 
f 543//361 544//363 359//360 
f 542//359 543//361 360//358 
f 541//357 542//359 316//356 
f 540//355 541//357 317//354 
f 539//353 540//355 318//352 
f 538//351 539//353 319//350 
f 537//349 538//351 320//348 
f 536//347 537//349 321//346 
f 535//345 536//347 333//344 
f 534//343 535//345 322//342 
f 533//341 534//343 304//340 
f 532//339 533//341 305//338 
f 531//337 532//339 334//336 
f 530//335 531//337 323//334 
f 529//333 530//335 324//332 
f 528//331 529//333 335//330 
f 527//329 528//331 357//328 
f 526//327 527//329 358//326 
f 525//325 526//327 361//324 
f 524//323 525//325 362//322 
f 523//321 524//323 390//320 
f 522//319 523//321 391//318 
f 521//317 522//319 392//316 
f 520//315 521//317 393//314 
f 519//313 520//315 427//312 
f 518//311 519//313 428//310 
f 517//309 518//311 394//308 
f 516//307 517//309 395//306 
f 515//305 516//307 363//304 
f 514//303 515//305 364//302 
f 513//301 514//303 372//300 
f 512//299 513//301 365//298 
f 511//297 512//299 366//296 
f 510//295 511//297 373//294 
f 509//293 510//295 417//292 
f 508//291 509//293 368//290 
f 507//289 508//291 367//288 
f 506//287 507//289 369//286 
f 505//285 506//287 370//284 
f 504//283 505//285 371//282 
f 503//281 504//283 375//280 
f 502//279 503//281 374//278 
f 501//277 502//279 376//276 
f 500//275 501//277 377//274 
f 499//273 500//275 378//272 
f 498//271 499//273 396//270 
f 497//269 498//271 397//268 
f 496//267 497//269 418//266 
f 495//265 496//267 429//264 
f 494//263 495//265 399//262 
f 493//261 494//263 398//260 
f 492//259 493//261 400//258 
f 491//257 492//259 401//256 
f 490//255 491//257 402//254 
f 489//253 490//255 403//252 
f 488//251 489//253 380//250 
f 487//249 488//251 379//248 
f 486//247 487//249 381//246 
f 485//245 486//247 435//244 
f 484//243 485//245 420//242 
f 483//241 484//243 419//240 
f 482//239 483//241 421//238 
f 481//237 482//239 430//236 
f 480//235 481//237 431//234 
f 479//233 480//235 423//232 
f 478//231 479//233 422//230 
f 477//229 478//231 424//228 
f 476//227 477//229 432//226 
f 475//225 476//227 433//224 
f 474//223 475//225 436//222 
f 473//221 474//223 437//220 
f 472//219 473//221 383//218 
f 471//217 472//219 382//216 
f 470//215 471//217 384//214 
f 469//213 470//215 385//212 
f 468//211 469//213 386//210 
f 467//209 468//211 405//208 
f 466//207 467//209 404//206 
f 465//205 466//207 406//204 
f 464//203 465//205 407//202 
f 463//201 464//203 388//200 
f 462//199 463//201 387//198 
f 461//197 462//199 389//196 
f 460//195 461//197 408//194 
f 459//193 460//195 410//192 
f 458//191 459//193 409//190 
f 457//189 458//191 411//188 
f 456//187 457//189 425//186 
f 455//185 456//187 434//184 
f 454//183 455//185 426//182 
f 453//181 454//183 413//180 
f 452//179 453//181 412//178 
f 451//177 452//179 414//176 
f 450//175 451//177 416//174 
f 449//173 450//175 415//172 
f 448//171 449//173 348//170 
f 447//169 448//171 347//168 
f 446//167 447//169 349//166 
f 445//165 446//167 350//164 
f 444//163 445//165 336//162 
f 443//161 444//163 326//160 
f 442//159 443//161 325//158 
f 441//157 442//159 327//156 
f 440//155 441//157 328//154 
f 439//153 440//155 329//152 
f 438//151 439//153 337//150 
o mesh4
f 582//436 581//436 580//436 
f 580//436 579//436 582//436 
f 579//436 578//436 582//436 
f 578//436 577//436 582//436 
f 577//436 576//436 582//436 
f 576//436 575//436 582//436 
f 575//436 574//436 582//436 
f 574//436 573//436 582//436 
f 573//436 572//436 582//436 
f 572//436 571//436 582//436 
f 571//436 570//436 582//436 
f 570//436 569//436 582//436 
f 569//436 568//436 582//436 
f 568//436 567//436 582//436 
f 567//436 566//436 582//436 
f 566//436 565//436 582//436 
f 565//436 564//436 582//436 
f 564//436 563//436 582//436 
f 563//436 562//436 582//436 
f 562//436 561//436 582//436 
f 561//436 560//436 582//436 
f 560//436 559//436 582//436 
f 559//436 558//436 582//436 
f 558//436 557//436 582//436 
f 557//436 556//436 582//436 
f 556//436 555//436 582//436 
f 555//436 554//436 582//436 
f 554//436 553//436 582//436 
f 553//436 552//436 582//436 
f 552//436 551//436 582//436 
f 551//436 550//436 582//436 
f 550//436 549//436 582//436 
f 549//436 548//436 582//436 
f 548//436 547//436 582//436 
f 547//436 546//436 582//436 
f 546//436 545//436 582//436 
f 545//436 544//436 582//436 
f 544//436 543//436 582//436 
f 543//436 542//436 582//436 
f 542//436 541//436 582//436 
f 541//436 540//436 582//436 
f 540//436 539//436 582//436 
f 539//436 538//436 582//436 
f 538//436 537//436 582//436 
f 537//436 536//436 582//436 
f 536//436 535//436 582//436 
f 535//436 534//436 582//436 
f 534//436 533//436 582//436 
f 533//436 532//436 582//436 
f 532//436 531//436 582//436 
f 531//436 530//436 582//436 
f 530//436 529//436 582//436 
f 529//436 528//436 582//436 
f 528//436 527//436 582//436 
f 527//436 526//436 582//436 
f 526//436 525//436 582//436 
f 525//436 524//436 582//436 
f 524//436 523//436 582//436 
f 523//436 522//436 582//436 
f 522//436 521//436 582//436 
f 521//436 520//436 582//436 
f 520//436 519//436 582//436 
f 519//436 518//436 582//436 
f 518//436 517//436 582//436 
f 517//436 516//436 582//436 
f 516//436 515//436 582//436 
f 515//436 514//436 582//436 
f 514//436 513//436 582//436 
f 513//436 512//436 582//436 
f 512//436 511//436 582//436 
f 511//436 510//436 582//436 
f 510//436 509//436 582//436 
f 509//436 508//436 582//436 
f 508//436 507//436 582//436 
f 507//436 506//436 582//436 
f 506//436 505//436 582//436 
f 505//436 504//436 582//436 
f 504//436 503//436 582//436 
f 503//436 502//436 582//436 
f 502//436 501//436 582//436 
f 501//436 500//436 582//436 
f 500//436 499//436 582//436 
f 499//436 498//436 582//436 
f 498//436 497//436 582//436 
f 497//436 496//436 582//436 
f 496//436 495//436 582//436 
f 495//436 494//436 582//436 
f 494//436 493//436 582//436 
f 493//436 492//436 582//436 
f 492//436 491//436 582//436 
f 491//436 490//436 582//436 
f 490//436 489//436 582//436 
f 489//436 488//436 582//436 
f 488//436 487//436 582//436 
f 487//436 486//436 582//436 
f 486//436 485//436 582//436 
f 485//436 484//436 582//436 
f 484//436 483//436 582//436 
f 483//436 482//436 582//436 
f 482//436 481//436 582//436 
f 481//436 480//436 582//436 
f 480//436 479//436 582//436 
f 479//436 478//436 582//436 
f 478//436 477//436 582//436 
f 477//436 476//436 582//436 
f 476//436 475//436 582//436 
f 475//436 474//436 582//436 
f 474//436 473//436 582//436 
f 473//436 472//436 582//436 
f 472//436 471//436 582//436 
f 471//436 470//436 582//436 
f 470//436 469//436 582//436 
f 469//436 468//436 582//436 
f 468//436 467//436 582//436 
f 467//436 466//436 582//436 
f 466//436 465//436 582//436 
f 465//436 464//436 582//436 
f 464//436 463//436 582//436 
f 463//436 462//436 582//436 
f 462//436 461//436 582//436 
f 461//436 460//436 582//436 
f 460//436 459//436 582//436 
f 459//436 458//436 582//436 
f 458//436 457//436 582//436 
f 457//436 456//436 582//436 
f 456//436 455//436 582//436 
f 455//436 454//436 582//436 
f 454//436 453//436 582//436 
f 453//436 452//436 582//436 
f 452//436 451//436 582//436 
f 451//436 450//436 582//436 
f 450//436 449//436 582//436 
f 449//436 448//436 582//436 
f 448//436 447//436 582//436 
f 447//436 446//436 582//436 
f 446//436 445//436 582//436 
f 445//436 444//436 582//436 
f 444//436 443//436 582//436 
f 443//436 442//436 582//436 
f 442//436 441//436 582//436 
f 441//436 440//436 582//436 
f 440//436 439//436 582//436 
f 439//436 438//436 582//436 
f 438//436 581//436 582//436 
